# File exported by Houdini 21.0.559 (www.sidefx.com)
# 384 points
# 1528 vertices
# 382 primitives
# Bounds: [-1.01907229, -0.530369043, -0.601970971] to [1.03969347, 0.558798969, 0.603635311]
g 
v -0.98265779 -0.503458977 -0.0278665684
v -1.01390934 -0.448111653 -0.0300183892
v -0.934902012 -0.452094883 0.159494072
v -0.892294884 -0.515581429 0.136220917
v -0.98760426 -0.492821783 -0.193570659
v -1.01907229 -0.43768847 -0.200159967
v -0.878526449 -0.512210786 -0.0288807061
v -0.895163178 -0.494457513 -0.165712655
v -0.825240254 -0.519387126 0.0994769558
v -0.940653145 -0.426571131 -0.329231411
v -0.90800637 -0.481092632 -0.327214181
v -0.711264789 -0.457308203 -0.421560228
v -0.762568831 -0.40430361 -0.422014147
v -0.752887309 -0.284178168 -0.390730321
v -0.908637881 -0.311058909 -0.303512394
v -0.981916189 -0.328640968 -0.18846947
v -0.817852557 -0.479342312 -0.287433207
v -0.621829629 -0.466591537 -0.388128698
v -0.698666394 -0.425605953 -0.103041321
v -0.659915507 -0.417712837 -0.19929783
v -0.54073751 -0.424872011 -0.302185446
v -0.475432962 -0.467353791 -0.504580379
v -0.516189814 -0.398789227 -0.504151165
v -0.516997933 -0.273851573 -0.477095157
v -0.78355372 -0.119425438 -0.254562318
v -0.658170342 -0.100786619 -0.342250824
v -0.846032202 -0.14230752 -0.147116929
v -0.615427375 0.0400774255 -0.299363583
v -0.716541231 0.0278885495 -0.204667956
v -0.759213507 0.0106819151 -0.099403359
v -0.40156424 -0.486328721 -0.479227036
v -0.235655308 -0.485232353 -0.569463789
v -0.285399705 -0.425162703 -0.575975597
v -0.288822085 -0.296920657 -0.551828206
v -0.49291116 -0.349873394 -0.113401406
v -0.331992924 -0.32853505 -0.100054741
v -0.29235509 -0.359723955 -0.224574611
v -0.442001283 -0.378156483 -0.213387161
v -0.521287739 -0.361099273 -0.0210581291
v -0.377593786 -0.342566341 0.0223807823
v -0.470436841 -0.0981892794 -0.429313928
v -0.268790066 -0.115116514 -0.499052256
v -0.25987491 0.0205434114 -0.469712406
v -0.452583134 0.0386028923 -0.391637087
v -0.0586413629 -0.485266298 -0.510742486
v -0.331457853 -0.461414784 -0.403668076
v -0.0349658728 -0.495549589 -0.435193539
v -0.0791903362 -0.381698936 -0.245211944
v -0.128938973 -0.333140671 -0.102059826
v -0.167168036 -0.341971666 0.051408723
v -0.0741545409 -0.457925856 -0.58203572
v -0.0788797364 -0.430831075 -0.601970971
v -0.091336675 -0.306433111 -0.579757214
v -0.0797119886 -0.139027506 -0.531702757
v 0.0920714438 -0.457714051 -0.574672461
v 0.0354838073 -0.33639133 0.0901535824
v 0.0797445849 -0.336075664 -0.0661739409
v 0.140420049 -0.394693494 -0.218352392
v 0.210331663 -0.489629298 -0.387713522
v 0.286907166 -0.501506686 -0.495155573
v -0.842882276 -0.158445761 0.0226815101
v -0.97972405 -0.346739352 -0.024936676
v -0.759540856 -0.0129042249 0.0494485013
v -0.793591142 -0.169478133 0.198418111
v -0.903606415 -0.34827444 0.174923539
v -0.727399945 -0.0303703975 0.185722068
v -0.79664284 -0.459858209 0.30941844
v -0.77350986 -0.336678296 0.32444936
v -0.61571455 -0.339282185 0.423550129
v -0.613570511 -0.460955799 0.411365449
v -0.755585074 -0.516154826 0.266460687
v -0.588595867 -0.501469016 0.36345619
v -0.657458305 -0.037761867 0.292003751
v -0.708579779 -0.175335273 0.320276201
v -0.728268445 0.0690290108 0.197736517
v -0.658146262 0.0604719445 0.300153047
v -0.765152454 0.0832940787 0.065306291
v -0.563588262 -0.053137213 0.355973631
v -0.596282065 -0.186517492 0.397348195
v -0.560500026 0.0436114706 0.365394682
v -0.433919519 -0.206497744 0.449093103
v -0.437431395 -0.341929466 0.49456495
v -0.442301065 -0.432595521 0.485117018
v -0.556385219 -0.514196515 0.292384356
v -0.443443924 -0.488619298 0.44672358
v -0.407069772 -0.487097055 0.353620887
v -0.704899251 -0.530369043 0.191090643
v -0.530878723 -0.420123428 0.119980924
v -0.679069459 -0.446582735 0.0182282366
v -0.384561718 -0.409903616 0.195750162
v -0.413698077 -0.0785071775 0.389245749
v -0.412518144 0.0195336882 0.398778915
v -0.238505378 -0.315873444 0.546188474
v -0.259050667 -0.413661331 0.552608371
v -0.276894301 -0.468310386 0.511900723
v -0.232706636 -0.194203064 0.476941913
v -0.209524587 -0.0817398503 0.406844646
v -0.208692089 -0.401235461 0.239312887
v 0.00315680401 -0.161878064 0.509355366
v -0.0164192989 -0.289013386 0.582185566
v -0.025605686 -0.388483346 0.595295787
v 0.0163690597 -0.0439939834 0.430655628
v -0.191770345 0.0124913557 0.418292999
v 0.0321224742 0.050068222 0.441543043
v 0.00639256928 -0.383720905 0.276371896
v -0.0256813858 -0.44108355 0.463107079
v -0.270812601 -0.457273692 0.40279457
v -0.0325145535 -0.440755248 0.558447063
v 0.226822987 -0.43459636 0.573529184
v 0.217614651 -0.436488062 0.497721046
v 0.208007276 -0.365600824 0.321479142
v 0.223035693 -0.319073468 0.148323253
v 0.21611695 -0.264627308 0.588350356
v 0.223028019 -0.377017587 0.603635311
v 0.237994865 -0.121356234 0.516262352
v -0.930800438 0.378575742 -0.0650480464
v -0.946224988 0.481172591 -0.050804168
v -0.940181434 0.459277064 0.157090485
v -0.929620981 0.365153223 0.133728564
v -0.86247164 0.233628675 -0.0728779584
v -0.810572624 0.2523278 -0.208190784
v -0.878193915 0.408916175 -0.227894351
v -0.886860847 0.519910395 -0.24268806
v -0.865755796 0.222891003 0.0958321914
v -0.840347648 0.558798969 -0.227050036
v -0.889169097 0.524409294 -0.0269252304
v -0.884963214 0.504699349 0.183456957
v -0.737100184 0.423049659 -0.381606489
v -0.739457667 0.515212715 -0.393130928
v -0.682961464 0.545444131 -0.374925882
v -0.766520917 0.104782037 -0.0802441984
v -0.724839747 0.123958588 -0.191708893
v -0.734836817 0.543852568 -0.165021926
v -0.575113058 0.527694106 -0.303427786
v -0.478442371 0.476199389 -0.191696316
v -0.524226546 0.464268774 -0.0647701696
v -0.56386143 0.460872382 0.076145947
v -0.756333232 0.521104753 0.029695848
v -0.690617263 0.281229109 -0.343205601
v -0.62328285 0.140966371 -0.296628803
v -0.466040373 0.146594211 -0.392097533
v -0.516157985 0.289065361 -0.448581517
v -0.552799404 0.418002874 -0.490008116
v -0.530373037 0.487964183 -0.487902373
v -0.487656415 0.522516906 -0.458142489
v -0.411099225 0.516729414 -0.369240433
v -0.291420668 0.285021275 -0.520957112
v -0.312265188 0.413531154 -0.554646015
v -0.29675287 0.486306995 -0.554209828
v -0.269971848 0.138902336 -0.475612164
v -0.23714444 0.50222671 -0.40851143
v -0.197562516 0.409595788 -0.255604655
v -0.335987478 0.436635315 -0.20689097
v -0.272044748 0.505607605 -0.492859423
v -0.066082567 0.106035762 -0.533719659
v -0.0732433423 0.267269284 -0.568805993
v -0.0894996077 0.408137858 -0.583516002
v -0.0874826908 0.47814548 -0.573103726
v -0.0691354349 0.495698482 -0.521800876
v -0.0474003814 0.478451461 -0.442055881
v -0.0731829554 -0.0178965423 -0.515532017
v -0.0255068019 0.363232702 -0.286824644
v -0.146587476 0.288741946 -0.0816476569
v -0.318404824 0.356144488 -0.0368487984
v -0.00556498859 0.263152272 -0.139238536
v 0.110110611 0.0909137651 -0.553081572
v 0.125894517 0.250680238 -0.586642504
v 0.103209861 -0.0414748155 -0.527334213
v 0.140875205 0.399475843 -0.597255111
v 0.143605217 0.465245217 -0.58163482
v 0.133421034 0.482114971 -0.526516974
v 0.12384475 0.466295481 -0.452928692
v 0.119090997 0.352796286 -0.306045473
v 0.00460126251 0.24115856 -0.0108886613
v -0.145764858 0.26505971 0.0566180088
v 0.118609786 0.267181665 -0.175299138
v 0.140864655 0.251314104 -0.0654052347
v -0.880643547 0.370308489 0.281951338
v -0.819463849 0.220179334 0.239912555
v -0.772294641 0.345696002 0.399914265
v -0.721828878 0.205033392 0.35780409
v -0.868888021 0.442940414 0.298495948
v -0.765125155 0.44445619 0.426729143
v -0.759003937 0.514717698 0.194018826
v -0.720696688 0.524820566 0.315043926
v -0.846595347 0.487629861 0.317757428
v -0.587405741 0.428840041 0.506821096
v -0.610713482 0.309728086 0.485412985
v -0.590843081 0.179356545 0.434883744
v -0.711278081 0.511658728 0.429515034
v -0.543651342 0.491725147 0.489752591
v -0.54920125 0.481515586 0.312809616
v -0.512187958 0.505007505 0.424852669
v -0.648054242 0.513828933 0.389803886
v -0.574922323 0.465737909 0.199690476
v -0.422081053 0.160808116 0.479739368
v -0.41726017 0.295557559 0.534426093
v -0.326294541 0.336025745 0.0897137001
v -0.34480539 0.353731424 0.206958339
v -0.371121019 0.459465414 0.521163344
v -0.38867867 0.406794786 0.554189861
v -0.363589376 0.413464487 0.340592027
v -0.358470321 0.470462173 0.457135051
v -0.193774715 0.165085912 0.513765872
v -0.196099445 0.312907845 0.57583791
v -0.178377286 0.453387976 0.495423198
v -0.185224667 0.464472979 0.563917041
v -0.196572617 0.409634382 0.586373687
v -0.163489074 0.291775137 0.188800186
v -0.183709115 0.366386294 0.342358202
v 0.0415224768 0.469572723 0.560445428
v 0.0323578864 0.419781566 0.589669108
v 0.0329482928 0.32149604 0.578039229
v 0.0333076641 0.190268263 0.526629925
v 0.00777840894 0.270552099 0.137167335
v 0.00873070955 0.370552003 0.33603856
v 0.0408901945 0.462670773 0.492624223
v 0.171662673 0.287062585 0.0831275508
v 0.228809297 0.395481378 0.307208836
v 0.102164835 -0.403241545 -0.592407703
v 0.108774103 -0.299600631 -0.574293196
v 0.334390551 -0.394111663 -0.565348685
v 0.308919907 -0.296286494 -0.549688399
v 0.322401553 -0.460480154 -0.549609125
v 0.105093211 -0.156671286 -0.534886122
v 0.280104578 -0.160677716 -0.509423018
v 0.269301414 -0.0492497422 -0.504219532
v 0.260742635 -0.324775547 -0.00644876063
v 0.345127493 -0.392867744 -0.168733597
v 0.345850408 -0.315236956 0.170186818
v 0.42131117 -0.323342413 0.0367939807
v 0.533670843 -0.375068128 -0.109547384
v 0.441175878 -0.0317448713 -0.444798648
v 0.449292183 0.0971776247 -0.472016811
v 0.272556782 0.0868533328 -0.532959759
v 0.454853505 -0.143525958 -0.455560297
v 0.409601569 -0.473411441 -0.3478899
v 0.462194651 -0.481939167 -0.464269698
v 0.509408891 -0.450789809 -0.512001872
v 0.53617394 -0.385262102 -0.516319335
v 0.509538591 -0.285066724 -0.498739779
v 0.607285798 -0.434063643 -0.282126516
v 0.636060774 -0.449277967 -0.403142065
v 0.646594465 -0.0991468504 -0.374805838
v 0.62085849 0.00184278958 -0.358245254
v 0.63259083 0.104465351 -0.37841332
v 0.671176434 -0.423769951 -0.44640103
v 0.705458343 -0.351918489 -0.445266366
v 0.704501271 -0.239210725 -0.419209868
v 0.656263649 -0.37754187 -0.0426853038
v 0.756747067 -0.41745007 -0.192376569
v 0.820393443 -0.434652984 -0.30283761
v 0.852953076 -0.390664756 -0.338247806
v 0.874036491 -0.32082504 -0.358746141
v 0.971944869 -0.401547849 -0.264329791
v 0.996677041 -0.331073493 -0.266600132
v 0.861755431 -0.21239236 -0.342332482
v 0.963091731 -0.220461771 -0.260328561
v 1.01704109 -0.345177293 -0.00907111447
v 1.03827715 -0.33127436 -0.147778168
v 1.03969347 -0.405548513 -0.136505023
v 1.00433016 -0.410197705 -0.0160123128
v 0.935550451 -0.443437934 0.158417791
v 0.930832028 -0.384374648 0.184487373
v 0.879478514 -0.266749978 0.202657163
v 0.974474967 -0.247503921 -0.00314999861
v 0.993880451 -0.228353143 -0.153682515
v 0.247762442 0.00193656387 0.450040579
v 0.259690017 0.0960896909 0.458806872
v 0.442470998 -0.0910514817 0.486155838
v 0.459176332 -0.252206594 0.55442673
v 0.458788991 -0.373132348 0.573708355
v 0.365708172 -0.36677748 0.334496737
v 0.520476222 -0.393764973 0.317779362
v 0.469960451 -0.350226611 0.191820309
v 0.543554783 -0.341677874 0.0874947309
v 0.406130493 -0.439989835 0.491404206
v 0.608373165 -0.454697192 0.437447876
v 0.438017786 -0.434005082 0.553863585
v 0.654468894 -0.447228074 0.495040774
v 0.634564042 -0.261118442 0.497258604
v 0.66570574 -0.382670999 0.512940347
v 0.435308903 0.0262614824 0.437928289
v 0.58600992 -0.0850120783 0.430478036
v 0.569907248 0.0285433792 0.390869349
v 0.669797897 -0.414818972 0.198588893
v 0.792537808 -0.426977932 0.0381886438
v 0.450486332 0.111244246 0.44854936
v 0.58536011 0.111383013 0.405522108
v 0.69622612 0.112099059 0.330901653
v 0.669596314 0.0259678718 0.310838729
v 0.690120339 -0.0848593712 0.337465137
v 0.781376421 -0.453588426 0.374735028
v 0.749331594 -0.459203333 0.307690471
v 0.755626917 -0.268456608 0.395145744
v 0.785329282 -0.0904945359 0.191436142
v 0.749514461 0.0191623773 0.190857276
v 0.880197406 -0.434099734 -0.104764611
v 0.894981861 -0.461531997 0.115625665
v 0.965040028 -0.447936416 -0.0457387529
v 0.789598346 -0.38123402 0.402618647
v 0.298987806 0.256532133 -0.566980541
v 0.296193808 0.477145463 -0.518247783
v 0.277662843 0.459834665 -0.438887447
v 0.255193949 0.372971147 -0.306561172
v 0.329945147 0.399545342 -0.580655992
v 0.31636101 0.451030999 -0.562309086
v 0.483897537 0.259076566 -0.517934144
v 0.24884221 0.301034778 -0.185902655
v 0.431241244 0.448363513 -0.401264518
v 0.371215343 0.402989864 -0.311625689
v 0.427210867 0.387634963 -0.227051377
v 0.510527551 0.444343597 -0.538977027
v 0.485823572 0.468599349 -0.496211827
v 0.512175858 0.382560432 -0.545293152
v 0.677920222 0.247604296 -0.445248395
v 0.644317448 0.459746152 -0.450337082
v 0.565598011 0.444311738 -0.348706424
v 0.694813192 0.361411512 -0.483214378
v 0.679956436 0.432393968 -0.489226699
v 0.514828563 0.396979988 0.0210679378
v 0.752878666 0.451403379 -0.0898068324
v 0.761948466 0.452131271 0.106935225
v 0.564130187 0.422872186 0.195609048
v 0.481691033 0.389354914 -0.131436229
v 0.697705269 0.450788528 -0.25847435
v 0.339843035 0.340447426 0.0639923736
v 0.295034319 0.303887933 -0.0891829059
v 0.401794642 0.405845195 0.256369293
v 0.738642514 0.0173288509 -0.278768182
v 0.752856433 0.106131628 -0.291553378
v 0.826602936 0.233466402 -0.346630245
v 0.859327435 0.344440311 -0.372943521
v 0.855845869 0.424027503 -0.369711757
v 0.809097826 0.460663736 -0.34080863
v 0.910952091 0.46951592 -0.183065951
v 0.950180471 0.479807109 -0.00131668965
v 0.821478367 0.105240054 -0.198484048
v 0.90956378 0.22816442 -0.231501609
v 0.953147709 0.342163533 -0.236514151
v 0.957658648 0.429352552 -0.216100469
v 0.93818754 0.227005094 -0.0857666656
v 0.990713537 0.355606616 -0.06510517
v 0.844782114 0.105351843 -0.086499244
v 0.826634705 0.105605178 0.076709345
v 0.922967374 0.228469223 0.131383166
v 0.976942241 0.356882513 0.154538795
v 0.999191344 0.446283966 -0.0422940738
v 0.9889642 0.447108299 0.150276855
v 0.261362761 0.214462712 0.533078194
v 0.22991161 0.462190956 0.465269089
v 0.23308745 0.461704105 0.537329078
v 0.233959094 0.414292693 0.573067605
v 0.257053643 0.320782274 0.571906388
v 0.502375782 0.309385329 0.548770964
v 0.482841522 0.213887066 0.516220212
v 0.501464128 0.390766472 0.541303873
v 0.443009913 0.446118534 0.41150412
v 0.477555335 0.436098158 0.49710989
v 0.638185978 0.44439438 0.349172145
v 0.676831186 0.429468304 0.42279017
v 0.637939692 0.214985713 0.466437906
v 0.668444455 0.307726592 0.48607403
v 0.689479887 0.377599746 0.453696877
v 0.814905047 0.315447897 0.404460102
v 0.776080847 0.219752014 0.388823658
v 0.810393631 0.391455442 0.39407441
v 0.779049873 0.106295183 0.215305984
v 0.800316393 0.0187976547 0.0496334843
v 0.850482345 -0.0876101032 0.0269259103
v 0.871900141 0.225272477 0.275524229
v 0.91222471 0.334650189 0.292868018
v 0.788508058 0.459960133 0.278528154
v 0.934007406 0.480832666 0.16231592
v 0.88435626 0.444046199 0.271926373
v 0.802588224 0.438022822 0.352436304
v 0.822086155 0.0219101757 -0.0977439731
v 0.874829829 -0.0803036019 -0.121956505
v 0.91647321 0.41328299 0.301026881
v 0.776214182 -0.0822023749 -0.303696156
v 0.931745708 -0.437751085 -0.22337465
v 0.851694107 -0.0802927613 -0.225116163
v 0.801353216 0.0219361335 -0.197369993
v 0.978826404 -0.430411994 -0.135206148
vt 0.196561903 0.931864798 0
vt 0.15289025 0.965699613 0
vt 0.139498413 0.94636035 0
vt 0.189016908 0.915541232 0
vt 0.227087274 0.884979129 0
vt 0.235841125 0.901838124 0
vt 0.590100408 0.167257726 0
vt 0.591565669 0.215391561 0
vt 0.564374506 0.207624063 0
vt 0.559697092 0.167131543 0
vt 0.54494369 0.129651815 0
vt 0.564577281 0.119020805 0
vt 0.584019005 0.266758591 0
vt 0.532838345 0.296493918 0
vt 0.513325751 0.286958814 0
vt 0.569657564 0.25496909 0
vt 0.999941945 0.863537192 0
vt 0.987912893 0.896789491 0
vt 0.936210632 0.892489076 0
vt 0.942003906 0.857166946 0
vt 0.0436219573 0.27734375 0
vt 0.0476425514 0.29523018 0
vt 0.00271959975 0.297474951 0
vt 0 0.279274404 0
vt 0.252114743 0.847450256 0
vt 0.203520373 0.861401379 0
vt 0.222065181 0.826694906 0
vt 0.486408144 0.27810955 0
vt 0.54257077 0.244728789 0
vt 0.492588073 0.219958022 0
vt 0.503108919 0.191888735 0
vt 0.460222095 0.252180576 0
vt 0.463976532 0.32919693 0
vt 0.44543156 0.315190196 0
vt 0.86455518 0.883168995 0
vt 0.867867172 0.846471667 0
vt 0.950387716 0.95289439 0
vt 0.906408429 0.945766807 0
vt 0.169330701 0.784049332 0
vt 0.153275147 0.817060053 0
vt 0.930651069 0.997580469 0
vt 0.891802609 0.987584352 0
vt 0.1101854 0.786137819 0
vt 0.127772376 0.7578125 0
vt 0.423194677 0.308140367 0
vt 0.396541357 0.35010156 0
vt 0.377128661 0.33828637 0
vt 0.797261119 0.865665734 0
vt 0.800176084 0.828125 0
vt 0.441750914 0.196444154 0
vt 0.429784983 0.226059094 0
vt 0.387915939 0.229262903 0
vt 0.397425801 0.193501458 0
vt 0.449274123 0.171096846 0
vt 0.409626871 0.15972589 0
vt 0.847587228 0.934671938 0
vt 0.787626565 0.919718206 0
vt 0.839301109 0.975123227 0
vt 0.78125 0.959303975 0
vt 0.32500726 0.324214756 0
vt 0.317145318 0.302494138 0
vt 0.401865989 0.28650856 0
vt 0.328343421 0.238884047 0
vt 0.341003299 0.19579941 0
vt 0.350684613 0.151987284 0
vt 0.419145107 0.546899319 0
vt 0.361620277 0.532218993 0
vt 0.362535328 0.522599876 0
vt 0.409702629 0.526426852 0
vt 0.412451297 0.583878219 0
vt 0.357517987 0.567989409 0
vt 0.396032095 0.636126339 0
vt 0.343932003 0.616249919 0
vt 0.330388844 0.347089112 0
vt 0.282224059 0.346161067 0
vt 0.281417131 0.187844962 0
vt 0.292491823 0.142627656 0
vt 0.265412927 0.234840527 0
vt 0.246448785 0.290609121 0
vt 0.225221828 0.321895868 0
vt 0.117251866 0.850943148 0
vt 0.170078531 0.892826617 0
vt 0.0803134739 0.818205059 0
vt 0.118232176 0.923074126 0
vt 0.0737987533 0.881524682 0
vt 0.0484997146 0.844328284 0
vt 0.0855947509 0.972316444 0
vt 0.0642137825 0.942095697 0
vt 0.743493676 0.996031821 0
vt 0.684221089 0.985644102 0
vt 0.689622223 0.951053441 0
vt 0.742119133 0.959805846 0
vt 0.540380597 0.063270852 0
vt 0.583758235 0.105218492 0
vt 0.524998307 0.0812975317 0
vt 0.476802558 0.0528091155 0
vt 0.485379398 0.0348360501 0
vt 0.0350773931 0.900729835 0
vt 0.0155948615 0.861703932 0
vt 0.001953125 0.836350143 0
vt 0.0338792987 0.818997025 0
vt 0.991102159 0.212294295 0
vt 0.968838215 0.230125785 0
vt 0.943525493 0.198824123 0
vt 0.965749502 0.181103945 0
vt 0.735005736 0.867807686 0
vt 0.73541683 0.910324514 0
vt 0.696389437 0.906792283 0
vt 0.701490641 0.864602447 0
vt 0.707301617 0.835266769 0
vt 0.741644502 0.841538727 0
vt 0.635717928 0.941536009 0
vt 0.646874547 0.901742041 0
vt 0.632819235 0.967672586 0
vt 0.467911571 0.0740547329 0
vt 0.423280627 0.0574866906 0
vt 0.43286863 0.0297396909 0
vt 0.510572135 0.102829024 0
vt 0.498407781 0.156609803 0
vt 0.455064356 0.128938928 0
vt 0.413362652 0.107633315 0
vt 0.435307831 0.00973420311 0
vt 0.654397905 0.860064387 0
vt 0.660915673 0.830906212 0
vt 0.579261303 0.951383352 0
vt 0.579704285 0.923116863 0
vt 0.632858634 0.987520695 0
vt 0.582880259 0.971141577 0
vt 0.590359211 0.884593308 0
vt 0.595517874 0.846021831 0
vt 0.362760305 0.095630832 0
vt 0.519117236 0.902837515 0
vt 0.525297165 0.861351669 0
vt 0.514992476 0.930898488 0
vt 0.533395469 0.820993364 0
vt 0.596401095 0.817975283 0
vt 0.534495413 0.792961895 0
vt 0.299895376 0.0871340483 0
vt 0.308319896 0.0298350006 0
vt 0.381548285 0.0452560745 0
vt 0.309274942 0.00161940337 0
vt 0.38239333 0.0126003856 0
vt 0.236163765 0.0222722068 0
vt 0.232607961 0 0
vt 0.240838036 0.0774681717 0
vt 0.23828949 0.128508776 0
vt 0.447305083 0.911135077 0
vt 0.457103401 0.880579472 0
vt 0.513965428 0.949241698 0
vt 0.441150337 0.928760588 0
vt 0.461991906 0.834621072 0
vt 0.838614583 0.210119262 0
vt 0.868186772 0.259381771 0
vt 0.846939266 0.277832478 0
vt 0.813831329 0.227411449 0
vt 0.958231688 0.101349674 0
vt 0.914761543 0.125896856 0
vt 0.897273779 0.0798444599 0
vt 0.934901595 0.0616125539 0
vt 0.779296875 0.17951341 0
vt 0.809945822 0.168942228 0
vt 0.878664374 0.186948061 0
vt 0.902800143 0.22901164 0
vt 0.996182859 0.465763748 0
vt 0.974743843 0.471754909 0
vt 0.960566342 0.413900226 0
vt 0.977448702 0.408140033 0
vt 0.995027184 0.527689695 0
vt 0.973390102 0.534113288 0
vt 0.918609023 0.158071294 0
vt 0.858372152 0.1662848 0
vt 0.856762588 0.139790803 0
vt 0.917535126 0.37013641 0
vt 0.935480416 0.362730742 0
vt 0.876927495 0.0393168367 0
vt 0.908495665 0.0238480028 0
vt 0.918794632 0.163812235 0
vt 0.930359423 0.431038231 0
vt 0.884905577 0.389741451 0
vt 0.865305781 0.46061036 0
vt 0.853657842 0.42292276 0
vt 0.935413897 0.488247782 0
vt 0.876021206 0.502014458 0
vt 0.847833872 0.096876815 0
vt 0.789874434 0.103900909 0
vt 0.781160295 0.0581002235 0
vt 0.834808826 0.0514733829 0
vt 0.796592534 0.143139571 0
vt 0.861212969 0.342960805 0
vt 0.874928832 0.330388188 0
vt 0.837514281 0.368300021 0
vt 0.828862071 0.0227387138 0
vt 0.866727471 0.0129725989 0
vt 0.775476396 0.0270879008 0
vt 0.725763381 0.142546266 0
vt 0.721988678 0.104024686 0
vt 0.791561127 0.163463518 0
vt 0.721485138 0.163517788 0
vt 0.718932927 0.0592576899 0
vt 0.715303183 0.0249767769 0
vt 0.811056376 0.418643773 0
vt 0.770781398 0.405253619 0
vt 0.78668344 0.355043888 0
vt 0.797438085 0.330346078 0
vt 0.657309532 0.0993082374 0
vt 0.656985998 0.0514534675 0
vt 0.66121614 0.14027907 0
vt 0.804998934 0.311278224 0
vt 0.660660923 0.160741195 0
vt 0.737289429 0.321202785 0
vt 0.742604554 0.304966122 0
vt 0.730508864 0.345310569 0
vt 0.385411829 0.674696922 0
vt 0.334577203 0.650273383 0
vt 0.659588993 0.0152005954 0
vt 0.720493913 0.399988323 0
vt 0.799559832 0.470457852 0
vt 0.749419093 0.460513592 0
vt 0.71178776 0.446800023 0
vt 0.599568903 0.0938907266 0
vt 0.605601192 0.0468220972 0
vt 0.608559728 0.00790658593 0
vt 0.594535589 0.136987507 0
vt 0.676517308 0.320053428 0
vt 0.673028886 0.302734375 0
vt 0.67945379 0.342656255 0
vt 0.68023783 0.395752013 0
vt 0.74808228 0.497012466 0
vt 0.709046423 0.479798019 0
vt 0.6800524 0.437314421 0
vt 0.674268425 0.465727299 0
vt 0.893471122 0.296614319 0
vt 0.928816259 0.263750732 0
vt 0.826840043 0.773251534 0
vt 0.803640008 0.815355539 0
vt 0.763108373 0.798936963 0
vt 0.782834291 0.759965777 0
vt 0.830431342 0.751763344 0
vt 0.873925805 0.766756296 0
vt 0.866898894 0.79405874 0
vt 0.787463307 0.731187165 0
vt 0.935863853 0.537100554 0
vt 0.962908268 0.573689282 0
vt 0.925025344 0.573033869 0
vt 0.995764554 0.528679788 0
vt 0.978414595 0.573539197 0
vt 0.773429632 0.857688487 0
vt 0.940163612 0.146484375 0
vt 0.731399477 0.753476441 0
vt 0.733230293 0.719220459 0
vt 0.720331788 0.791503787 0
vt 0.728884101 0.697301388 0
vt 0.779420853 0.707722425 0
vt 0.948661804 0.61272347 0
vt 0.92355305 0.607127845 0
vt 0.904258549 0.59576714 0
vt 0.864403307 0.607047319 0
vt 0.873077571 0.572562456 0
vt 0.879222274 0.538493454 0
vt 0.670565665 0.783772707 0
vt 0.676462054 0.742581069 0
vt 0.805742085 0.538595617 0
vt 0.799685299 0.505853057 0
vt 0.6758371 0.709343553 0
vt 0.677549362 0.690745771 0
vt 0.815247118 0.579297304 0
vt 0.817668974 0.617340744 0
vt 0.873553753 0.626773715 0
vt 0.821237385 0.636825144 0
vt 0.606301367 0.766745806 0
vt 0.615716875 0.721949995 0
vt 0.765867829 0.650015175 0
vt 0.763406813 0.629380465 0
vt 0.62193495 0.694954753 0
vt 0.623181701 0.677581728 0
vt 0.754134178 0.532126665 0
vt 0.762078702 0.578350484 0
vt 0.557996154 0.677958846 0
vt 0.55927819 0.660991192 0
vt 0.551964581 0.706041873 0
vt 0.543630719 0.745999396 0
vt 0.707906485 0.578920186 0
vt 0.708326578 0.518467605 0
vt 0.698705077 0.631085694 0
vt 0.698794961 0.651202202 0
vt 0.644850433 0.57332772 0
vt 0.664453983 0.505165875 0
vt 0.30960241 0.528789043 0
vt 0.301089406 0.557831466 0
vt 0.244082049 0.547006607 0
vt 0.243650556 0.51772666 0
vt 0.315352857 0.513068616 0
vt 0.250114471 0.498984039 0
vt 0.292596459 0.599885941 0
vt 0.241758749 0.589041591 0
vt 0.286415905 0.63267076 0
vt 0.238365814 0.622192502 0
vt 0.229418054 0.172586262 0
vt 0.206320822 0.223026231 0
vt 0.183798835 0.161805436 0
vt 0.203720555 0.124011144 0
vt 0.151871562 0.206006199 0
vt 0.232541218 0.662987888 0
vt 0.177526042 0.656443834 0
vt 0.183910936 0.617492914 0
vt 0.279559284 0.670890749 0
vt 0.187652513 0.584010839 0
vt 0.214351162 0.341232687 0
vt 0.17437087 0.313742906 0
vt 0.189057544 0.279850304 0
vt 0.159362614 0.329197794 0
vt 0.185260341 0.53823638 0
vt 0.185403869 0.508294582 0
vt 0.19579336 0.490959078 0
vt 0.130678922 0.259441644 0
vt 0.122466721 0.29580757 0
vt 0.123571083 0.615811765 0
vt 0.125040337 0.584592342 0
vt 0.117150202 0.646533012 0
vt 0.110862397 0.309848607 0
vt 0.132597938 0.507622063 0
vt 0.145194516 0.488838345 0
vt 0.123795792 0.539178908 0
vt 0.0861031339 0.232570156 0
vt 0.11596588 0.187270507 0
vt 0.0673488453 0.265990973 0
vt 0.0547141917 0.280636609 0
vt 0.0787005574 0.5067752 0
vt 0.0841167718 0.486059695 0
vt 0.0358685814 0.498690277 0
vt 0.0439401343 0.478515625 0
vt 0.0746891946 0.536822617 0
vt 0.039953161 0.530541658 0
vt 0.182488978 0.361144453 0
vt 0.184345841 0.342065483 0
vt 0.221272394 0.347546697 0
vt 0.222153336 0.369814962 0
vt 0.122460917 0.348249227 0
vt 0.129716903 0.331091911 0
vt 0.174953207 0.39047575 0
vt 0.110452726 0.383230567 0
vt 0.217293873 0.402401775 0
vt 0.271763891 0.34765625 0
vt 0.276084155 0.368886381 0
vt 0.234375 0.370191604 0
vt 0.235478073 0.348674417 0
vt 0 0.503337085 0
vt 0.00947440043 0.53412199 0
vt 0.469155759 0.793984294 0
vt 0.471591681 0.765692651 0
vt 0.391389728 0.85822475 0
vt 0.406871796 0.810343623 0
vt 0.382610738 0.891867697 0
vt 0.195434853 0.0758984163 0
vt 0.167534217 0.117965393 0
vt 0.150350466 0.0811008587 0
vt 0.148532167 0.148784161 0
vt 0.18051976 0.0263155382 0
vt 0.120940641 0.0445053689 0
vt 0.170439631 0.00803936645 0
vt 0.106722414 0.0277623832 0
vt 0.381894857 0.91123575 0
vt 0.322516978 0.876042366 0
vt 0.340435386 0.843844175 0
vt 0.318359375 0.895403981 0
vt 0.416667521 0.775041044 0
vt 0.365630031 0.793399811 0
vt 0.378033459 0.760572851 0
vt 0.0730300024 0.164728656 0
vt 0.107165195 0.116431721 0
vt 0.682045221 0.263417482 0
vt 0.684012651 0.238773018 0
vt 0.723902166 0.248507649 0
vt 0.721413255 0.273110837 0
vt 0.645882368 0.261078835 0
vt 0.644958079 0.234347895 0
vt 0.0152867818 0.479741335 0
vt 0.00795784686 0.445373833 0
vt 0.0484897271 0.44160825 0
vt 0.0520123988 0.475068629 0
vt 0.0807335153 0.0842974558 0
vt 0.0704354867 0.0648553595 0
vt 0 0.389313132 0
vt 0.0452187955 0.383145094 0
vt 0.0992907286 0.439888358 0
vt 0.0935991481 0.472875178 0
vt 0.0484809205 0.207662761 0
vt 0.040904589 0.1427017 0
vt 0.0229182076 0.190906972 0
vt 0.0275114495 0.130539939 0
vt 0.00667594234 0.182712346 0
vt 0.0485913269 0.349993616 0
vt 0.0528570339 0.328125 0
vt 0.270062327 0.717331707 0
vt 0.219915465 0.712483048 0
vt 0.633367419 0.34759751 0
vt 0.627346337 0.323362321 0
vt 0.679587126 0.396052152 0
vt 0.641072452 0.393643975 0
vt 0.26062116 0.75962913 0
vt 0.206388846 0.752615213 0
vt 0.59375 0.156555355 0
vt 0.256971866 0.778889239 0
vt 0.207452893 0.768801928 0
vt 0.164764211 0.705361724 0
vt 0.644987822 0.432279348 0
vt 0.606320858 0.390120804 0
vt 0.58758533 0.360898823 0
vt 0.590305269 0.415819764 0
vt 0.570324838 0.332108706 0
vt 0.561697245 0.317886174 0
vt 0.620277286 0.308287412 0
vt 0.151671484 0.759113252 0
vt 0.154028431 0.741343677 0
vt 0.105728567 0.693259537 0
vt 0.547506571 0.377757818 0
vt 0.52308923 0.347553849 0
vt 0.0997425169 0.727705538 0
vt 0.101525918 0.748682022 0
vt 0.563132465 0.488292038 0
vt 0.546814919 0.53974092 0
vt 0.488157153 0.512435079 0
vt 0.491774231 0.45436281 0
vt 0.508659363 0.404968768 0
vt 0.573947906 0.443689764 0
vt 0.631466389 0.458259344 0
vt 0.615769744 0.501065731 0
vt 0.59483552 0.558097899 0
vt 0.510743856 0.334547579 0
vt 0.0745839402 0.636810601 0
vt 0.0823762864 0.612016559 0
vt 0.0568104275 0.678380013 0
vt 0.0453120619 0.710178316 0
vt 0.460751116 0.370795637 0
vt 0.444618225 0.354374945 0
vt 0.493729979 0.321024537 0
vt 0.476130188 0.381186873 0
vt 0.432578057 0.479385972 0
vt 0.445335299 0.426113427 0
vt 0.0199946314 0.66190058 0
vt 0.0435779057 0.624396384 0
vt 0.00154424936 0.691697061 0
vt 0.428601325 0.413594157 0
vt 0.412109375 0.392205387 0
vt 0.367908895 0.432893902 0
vt 0.410569906 0.431667686 0
vt 0.410451442 0.467350841 0
vt 0.3601695 0.471937358 0
vt 0.306187749 0.428877294 0
vt 0.322325528 0.383995473 0
vt 0.370409429 0.388564795 0
vt 0.403903157 0.387137711 0
vt 0.297979772 0.467983335 0
vt 0.404479891 0.492677867 0
vt 0.35263586 0.497782439 0
vt 0.415538996 0.466397732 0
vt 0.296798676 0.494061917 0
vt 0.480080217 0.725452125 0
vt 0.643611968 0.62286061 0
vt 0.642377734 0.64382261 0
vt 0.699677527 0.668608665 0
vt 0.639812887 0.661126137 0
vt 0.417609632 0.749933243 0
vt 0.488233477 0.693557978 0
vt 0.416796416 0.713180661 0
vt 0.417535752 0.683415115 0
vt 0.499990344 0.668214202 0
vt 0.422024071 0.66015625 0
vt 0.581154823 0.605192363 0
vt 0.570092738 0.630587459 0
vt 0.523352504 0.585107088 0
vt 0.5112046 0.607126892 0
vt 0.684925318 0.200805202 0
vt 0.7301355 0.212481394 0
vt 0.684998631 0.172237188 0
vt 0.734873176 0.183289453 0
vt 0.550122619 0.670348763 0
vt 0.50233674 0.647631347 0
vt 0.503566086 0.623907208 0
vt 0.560504735 0.648314834 0
vt 0.640260279 0.192143604 0
vt 0.637622833 0.162109375 0
vt 0.459088564 0.622401834 0
vt 0.469911665 0.602636158 0
vt 0.289543748 0.349609375 0
vt 0.332123548 0.35820967 0
vt 0.28031072 0.375583202 0
vt 0.150600553 0.44415471 0
vt 0.136796609 0.476094127 0
vt 0.605076015 0.266374052 0
vt 0.60393101 0.239261091 0
vt 0.263243258 0.419698894 0
vt 0.59765625 0.19305566 0
vt 0.222525924 0.404867679 0
vt 0.256216496 0.453352094 0
vt 0.216796875 0.434800863 0
vt 0.479118526 0.563053668 0
vt 0.475007921 0.585339725 0
vt 0.45017159 0.562734187 0
vt 0.436030328 0.52794838 0
vt 0.19368203 0.4532004 0
vt 0.179224193 0.484025002 0
vt 0.374751478 0.363443553 0
vt 0.42539674 0.593359053 0
vt 0.439210296 0.574240088 0
vt 0.250540227 0.47572735 0
vt 0.416439205 0.528608501 0
vt 0.41688931 0.523899019 0
vt 0.896066666 0 0
vt 0.0820579007 0.581115186 0
vt 0.0345599242 0.242779389 0
vt 0.0509322584 0.580003083 0
vt 0.0537216775 0.613050878 0
vt 0.0207750648 0.256962597 0
vt 0.026001513 0.619860113 0
vt 0.0217904206 0.58718127 0
vt 0.0194439013 0.217699632 0
vt 0 0.219419301 0
vt 0.00137037144 0.331990004 0
vt 0.00109793036 0.352065593 0
vt 0.0548878498 0.603153408 0
vt 0.404042125 0.362475276 0
g 
f 1/1 4/2 3/3 2/4
f 1/1 2/4 6/5 5/6
f 1/7 5/8 8/9 7/10
f 1/7 7/10 9/11 4/12
f 10/13 13/14 12/15 11/16
f 10/17 15/18 14/19 13/20
f 10/21 11/22 5/23 6/24
f 10/25 6/5 16/26 15/27
f 11/16 12/15 18/28 17/29
f 11/16 17/29 8/9 5/8
f 17/29 20/30 19/31 8/9
f 17/29 18/28 21/32 20/30
f 13/14 23/33 22/34 12/15
f 13/20 14/19 24/35 23/36
f 25/37 26/38 14/19 15/18
f 25/39 15/27 16/26 27/40
f 25/37 29/41 28/42 26/38
f 25/39 27/40 30/43 29/44
f 12/15 22/34 31/45 18/28
f 23/33 33/46 32/47 22/34
f 23/36 24/35 34/48 33/49
f 35/50 38/51 37/52 36/53
f 35/50 39/54 19/31 20/30
f 35/50 36/53 40/55 39/54
f 35/50 20/30 21/32 38/51
f 24/35 14/19 26/38 41/56
f 24/35 41/56 42/57 34/48
f 41/56 44/58 43/59 42/57
f 41/56 26/38 28/42 44/58
f 22/34 32/47 45/60 31/45
f 31/45 45/60 47/61 46/62
f 31/45 46/62 21/32 18/28
f 46/62 47/61 48/63 37/52
f 46/62 37/52 38/51 21/32
f 36/53 37/52 48/63 49/64
f 36/53 49/64 50/65 40/55
f 33/66 52/67 51/68 32/69
f 33/66 34/70 53/71 52/67
f 34/70 42/72 54/73 53/71
f 32/47 51/74 55/75 45/60
f 49/64 57/76 56/77 50/65
f 49/64 48/63 58/78 57/76
f 48/63 47/61 59/79 58/78
f 47/61 45/60 60/80 59/79
f 61/81 27/40 16/26 62/82
f 61/81 63/83 30/43 27/40
f 61/81 62/82 65/84 64/85
f 61/81 64/85 66/86 63/83
f 67/87 68/88 65/84 3/3
f 67/89 70/90 69/91 68/92
f 67/93 3/94 4/12 71/95
f 67/93 71/95 72/96 70/97
f 66/86 64/85 74/98 73/99
f 66/86 73/99 76/100 75/101
f 66/102 75/103 77/104 63/105
f 73/106 74/107 79/108 78/109
f 73/106 78/109 80/110 76/111
f 69/91 82/112 81/113 79/108
f 69/91 70/90 83/114 82/112
f 69/91 79/108 74/107 68/92
f 84/115 86/116 85/117 72/96
f 84/115 72/96 71/95 87/118
f 84/115 87/118 89/119 88/120
f 84/115 88/120 90/121 86/116
f 72/96 85/117 83/122 70/97
f 79/108 81/113 91/123 78/109
f 78/109 91/123 92/124 80/110
f 83/114 94/125 93/126 82/112
f 83/114 85/127 95/128 94/125
f 82/112 93/126 96/129 81/113
f 81/113 96/129 97/130 91/123
f 40/55 90/121 88/120 39/54
f 40/55 50/65 98/131 90/121
f 93/126 100/132 99/133 96/129
f 93/126 94/125 101/134 100/132
f 96/129 99/133 102/135 97/130
f 97/130 103/136 92/124 91/123
f 97/130 102/135 104/137 103/136
f 50/65 56/77 105/138 98/131
f 106/139 107/140 98/131 105/138
f 106/139 108/141 95/142 107/140
f 106/139 110/143 109/144 108/141
f 106/139 105/138 111/145 110/143
f 105/138 56/77 112/146 111/145
f 101/134 114/147 113/148 100/132
f 101/134 94/125 95/128 108/149
f 101/134 108/149 109/150 114/147
f 100/132 113/148 115/151 99/133
f 116/152 119/153 118/154 117/155
f 116/156 122/157 121/158 120/159
f 116/152 117/155 123/160 122/161
f 116/152 120/162 124/163 119/153
f 117/164 126/165 125/166 123/167
f 117/164 118/168 127/169 126/165
f 123/170 129/171 128/172 122/157
f 123/167 125/166 130/173 129/174
f 120/159 121/158 132/175 131/176
f 120/162 131/177 77/104 124/163
f 133/178 134/179 130/173 125/166
f 133/178 136/180 135/181 134/179
f 133/178 138/182 137/183 136/180
f 133/178 125/166 126/165 138/182
f 139/184 142/185 141/186 140/187
f 139/184 128/172 143/188 142/185
f 139/184 140/187 132/175 121/158
f 139/184 121/158 122/157 128/172
f 130/173 145/189 144/190 129/174
f 130/173 134/179 146/191 145/189
f 140/187 28/192 29/193 132/175
f 140/187 141/186 44/194 28/192
f 143/188 148/195 147/196 142/185
f 143/188 128/172 129/171 144/197
f 143/188 144/197 149/198 148/195
f 141/186 142/185 147/196 150/199
f 141/186 150/199 43/200 44/194
f 146/191 153/201 152/202 151/203
f 146/191 151/203 154/204 145/189
f 146/191 134/179 135/181 153/201
f 147/196 156/205 155/206 150/199
f 147/196 148/195 157/207 156/205
f 149/208 144/190 145/189 154/204
f 149/198 158/209 157/207 148/195
f 149/208 154/204 159/210 158/211
f 154/204 151/203 160/212 159/210
f 43/213 161/214 54/73 42/72
f 43/200 150/199 155/206 161/215
f 151/203 152/202 162/216 160/212
f 152/202 153/201 164/217 163/218
f 152/202 163/218 165/219 162/216
f 155/206 156/205 167/220 166/221
f 155/206 166/221 168/222 161/215
f 156/205 157/207 169/223 167/220
f 159/210 171/224 170/225 158/211
f 159/210 160/212 172/226 171/224
f 160/212 162/216 173/227 172/226
f 165/219 163/218 175/228 174/229
f 165/219 176/230 173/227 162/216
f 165/219 174/229 177/231 176/230
f 178/232 119/153 124/163 179/233
f 178/234 179/235 181/236 180/237
f 178/234 182/238 118/239 119/240
f 178/234 180/237 183/241 182/238
f 127/169 184/242 138/182 126/165
f 127/169 186/243 185/244 184/242
f 127/169 118/245 182/246 186/243
f 179/233 124/163 77/104 75/103
f 179/235 75/247 76/111 181/236
f 77/104 131/177 30/248 63/105
f 180/237 188/249 187/250 183/241
f 180/237 181/236 189/251 188/249
f 183/241 187/250 191/252 190/253
f 183/254 190/255 186/243 182/246
f 185/244 194/256 193/257 192/258
f 185/244 192/258 195/259 184/242
f 185/244 186/243 190/255 194/256
f 189/251 181/236 76/111 80/110
f 189/251 80/110 92/124 196/260
f 189/251 196/260 197/261 188/249
f 137/183 195/259 199/262 198/263
f 137/183 198/263 164/217 136/180
f 137/183 138/182 184/242 195/259
f 187/250 201/264 200/265 191/252
f 187/250 188/249 197/261 201/264
f 192/258 202/266 199/262 195/259
f 192/258 193/257 203/267 202/266
f 191/268 193/257 194/256 190/255
f 191/268 200/269 203/267 193/257
f 92/124 103/136 204/270 196/260
f 196/260 204/270 205/271 197/261
f 200/269 207/272 206/273 203/267
f 200/265 201/264 208/274 207/275
f 198/263 199/262 209/276 175/228
f 198/263 175/228 163/218 164/217
f 203/267 206/273 210/277 202/266
f 208/274 201/264 197/261 205/271
f 208/274 212/278 211/279 207/275
f 208/274 205/271 213/280 212/278
f 204/270 214/281 213/280 205/271
f 204/270 103/136 104/137 214/281
f 210/277 209/276 199/262 202/266
f 210/277 216/282 215/283 209/276
f 210/277 206/273 217/284 216/282
f 206/273 207/272 211/285 217/284
f 175/228 209/276 215/283 174/229
f 215/283 216/282 219/286 218/287
f 215/283 218/287 177/231 174/229
f 220/288 52/67 53/71 221/289
f 220/288 221/289 223/290 222/291
f 220/288 55/292 51/68 52/67
f 220/288 222/291 224/293 55/292
f 221/289 53/71 54/73 225/294
f 221/289 225/294 226/295 223/290
f 225/294 54/73 161/214 168/296
f 225/294 168/296 227/297 226/295
f 228/298 57/76 58/78 229/299
f 228/298 231/300 230/301 112/146
f 228/298 229/299 232/302 231/300
f 228/298 112/146 56/77 57/76
f 227/297 235/303 234/304 233/305
f 227/297 168/296 166/306 235/303
f 227/297 233/305 236/307 226/295
f 60/80 45/60 55/75 224/308
f 60/80 238/309 237/310 59/79
f 60/80 224/308 239/311 238/309
f 223/290 241/312 240/313 222/291
f 223/290 226/295 236/307 241/312
f 224/293 222/291 240/313 239/314
f 229/299 58/78 59/79 237/310
f 229/299 237/310 242/315 232/302
f 237/310 238/309 243/316 242/315
f 233/305 245/317 244/318 236/307
f 233/305 234/304 246/319 245/317
f 239/311 247/320 243/316 238/309
f 239/314 240/313 248/321 247/322
f 240/313 241/312 249/323 248/321
f 242/315 251/324 250/325 232/302
f 242/315 243/316 252/326 251/324
f 243/316 247/320 253/327 252/326
f 254/328 253/329 247/322 248/321
f 254/328 256/330 255/331 253/329
f 254/328 248/321 249/323 257/332
f 254/328 257/332 258/333 256/330
f 259/334 262/335 261/336 260/337
f 259/334 264/338 263/339 262/335
f 259/334 266/340 265/341 264/338
f 259/334 260/337 267/342 266/340
f 260/343 261/344 255/345 256/346
f 260/347 256/330 258/333 267/348
f 99/133 115/151 268/349 102/135
f 102/135 268/349 269/350 104/137
f 113/148 271/351 270/352 115/151
f 113/148 114/147 272/353 271/351
f 112/146 230/301 273/354 111/145
f 230/301 275/355 274/356 273/354
f 230/301 231/300 276/357 275/355
f 277/358 273/354 274/356 278/359
f 277/358 279/360 109/144 110/143
f 277/358 110/143 111/145 273/354
f 277/358 278/359 280/361 279/360
f 231/300 232/302 250/325 276/357
f 272/353 114/147 109/150 279/362
f 272/353 282/363 281/364 271/351
f 272/353 279/362 280/365 282/363
f 270/352 283/366 268/349 115/151
f 270/352 271/351 281/364 284/367
f 270/352 284/367 285/368 283/366
f 276/357 250/325 287/369 286/370
f 276/357 286/370 274/356 275/355
f 285/371 289/372 288/373 283/374
f 285/371 291/375 290/376 289/372
f 285/377 284/378 292/379 291/380
f 278/359 294/381 293/382 280/361
f 278/359 274/356 286/370 294/381
f 292/379 284/378 281/383 295/384
f 292/379 295/384 265/341 296/385
f 292/379 296/385 297/386 291/380
f 287/369 250/325 251/324 298/387
f 287/369 299/388 294/381 286/370
f 287/369 298/387 300/389 299/388
f 263/390 299/388 300/389 262/391
f 263/339 264/338 301/392 293/393
f 263/390 293/382 294/381 299/388
f 166/306 167/394 302/395 235/303
f 172/226 304/396 303/397 171/224
f 172/226 173/398 305/399 304/396
f 167/394 169/400 306/401 302/395
f 169/223 157/207 158/209 170/402
f 169/400 170/403 307/404 306/401
f 235/303 302/395 308/405 234/304
f 305/399 173/398 176/230 309/406
f 305/399 311/407 310/408 304/396
f 305/399 309/406 312/409 311/407
f 303/397 314/410 313/411 307/412
f 303/397 304/396 310/408 314/410
f 303/397 307/412 170/225 171/224
f 307/404 313/413 315/414 306/401
f 234/304 308/405 316/415 246/319
f 310/408 318/416 317/417 314/410
f 310/408 311/407 312/409 318/416
f 308/405 302/395 306/401 315/414
f 308/405 315/414 319/418 316/415
f 315/414 313/413 320/419 319/418
f 321/420 324/421 323/422 322/423
f 321/420 322/423 326/424 325/425
f 321/420 325/425 328/426 327/427
f 321/420 327/427 329/428 324/421
f 313/411 314/410 317/417 320/429
f 246/319 331/430 330/431 245/317
f 246/319 316/415 332/432 331/430
f 316/415 319/418 333/433 332/432
f 320/429 334/434 333/435 319/436
f 320/429 317/417 335/437 334/434
f 322/423 323/422 337/438 336/439
f 322/423 336/439 335/437 326/424
f 332/432 339/440 338/441 331/430
f 332/432 333/433 340/442 339/440
f 335/437 317/417 318/416 326/424
f 335/437 336/439 341/443 334/434
f 333/435 334/434 341/443 340/444
f 342/445 339/446 340/447 343/448
f 342/445 346/449 345/450 344/451
f 342/445 344/451 338/452 339/446
f 342/445 343/448 347/453 346/449
f 340/447 341/454 348/455 343/448
f 336/439 337/438 348/456 341/443
f 343/448 348/455 349/457 347/453
f 104/137 269/350 350/458 214/281
f 217/284 351/459 219/286 216/282
f 217/284 211/285 352/460 351/459
f 211/285 212/461 353/462 352/460
f 218/287 327/427 328/426 177/231
f 218/287 219/286 329/428 327/427
f 268/349 283/366 288/463 269/350
f 354/464 350/458 356/465 355/466
f 354/464 353/467 212/278 213/280
f 354/464 213/280 214/281 350/458
f 354/464 355/466 357/468 353/467
f 358/469 351/459 352/460 359/470
f 358/469 329/428 219/286 351/459
f 358/469 360/471 324/421 329/428
f 358/469 359/470 361/472 360/471
f 288/373 289/372 362/473 356/474
f 288/463 356/465 350/458 269/350
f 356/474 362/473 363/475 355/476
f 355/477 363/478 364/479 357/480
f 359/470 352/460 353/462 357/480
f 359/470 357/480 364/479 361/472
f 363/475 362/473 366/481 365/482
f 363/478 365/483 367/484 364/479
f 297/485 369/486 345/450 368/487
f 297/386 296/385 370/488 369/489
f 297/490 368/491 290/376 291/375
f 368/487 345/450 346/449 371/492
f 368/491 371/493 366/481 290/376
f 366/494 371/492 372/495 365/496
f 366/481 362/473 289/372 290/376
f 373/497 376/498 375/499 374/500
f 373/497 323/422 324/421 360/471
f 373/497 374/500 337/438 323/422
f 373/497 360/471 361/472 376/498
f 369/489 370/488 378/501 377/502
f 369/486 377/503 344/451 345/450
f 365/483 372/504 379/505 367/484
f 371/492 346/449 347/453 372/495
f 372/495 347/453 349/457 379/506
f 374/500 375/499 379/505 349/507
f 374/500 349/508 348/456 337/438
f 6/5 2/4 62/82 16/26
f 2/4 3/3 65/84 62/82
f 8/9 19/31 89/119 7/10
f 7/10 89/119 87/118 9/11
f 19/31 39/54 88/120 89/119
f 4/12 9/11 87/118 71/95
f 65/84 68/88 74/98 64/85
f 90/121 98/131 107/140 86/116
f 131/176 132/175 29/193 30/509
f 136/180 164/217 153/201 135/181
f 236/307 244/318 249/323 241/312
f 244/318 380/510 257/332 249/323
f 244/318 245/317 330/431 380/510
f 251/324 252/326 381/511 298/387
f 380/510 382/512 258/333 257/332
f 380/510 330/431 383/513 382/512
f 252/326 253/327 255/514 381/511
f 382/512 383/513 377/515 378/516
f 382/512 378/516 267/348 258/333
f 298/387 381/511 384/517 300/389
f 378/501 370/488 266/340 267/342
f 255/514 261/518 384/517 381/511
f 300/389 384/517 261/518 262/391
f 280/519 293/393 301/392 282/520
f 282/520 301/392 295/384 281/383
f 295/384 301/392 264/338 265/341
f 296/385 265/341 266/340 370/488
f 176/230 177/231 328/426 309/406
f 309/406 328/426 325/425 312/409
f 312/409 325/425 326/424 318/416
f 330/431 331/430 338/441 383/521
f 383/522 338/452 344/451 377/503
f 361/472 364/479 367/484 376/498
f 367/484 379/505 375/499 376/498
f 107/140 95/142 85/117 86/116
